<svg width="465" height="302" viewBox="0 0 465 302" fill="none" xmlns="http://www.w3.org/2000/svg">
  <!-- 深色背景 -->
  <rect width="465" height="302" fill="#0f172a"/>
  
  <!-- 科技感网格背景 -->
  <pattern id="grid2" width="20" height="20" patternUnits="userSpaceOnUse">
    <path d="M 20 0 L 0 0 0 20" fill="none" stroke="#1e293b" stroke-width="0.5"/>
  </pattern>
  <rect width="465" height="302" fill="url(#grid2)"/>

  <!-- 左侧原始图像区域 -->
  <g transform="translate(30, 20)">
    <rect x="0" y="0" width="180" height="220" rx="6" fill="#1e293b"/>
    <!-- 图像占位符 -->
    <rect x="10" y="30" width="160" height="180" fill="#2d3748"/>
    <text x="10" y="20" font-family="Arial" font-size="12" fill="#94a3b8">Original Image</text>
    
    <!-- 扫描线动画效果 -->
    <rect x="10" y="30" width="160" height="2" fill="#3b82f6" opacity="0.6">
      <animate attributeName="y" 
               values="30;210;30"
               dur="3s"
               repeatCount="indefinite"/>
    </rect>
  </g>

  <!-- 右侧检测结果区域 -->
  <g transform="translate(255, 20)">
    <rect x="0" y="0" width="180" height="220" rx="6" fill="#1e293b"/>
    <!-- 图像占位符 -->
    <rect x="10" y="30" width="160" height="180" fill="#2d3748"/>
    <text x="10" y="20" font-family="Arial" font-size="12" fill="#94a3b8">Detection Result</text>
    
    <!-- AI检测标记 -->
    <g>
      <!-- 检测框1 -->
      <rect x="30" y="60" width="60" height="50" 
            fill="none" stroke="#ef4444" stroke-width="1.5" 
            stroke-dasharray="3,3"/>
      <text x="30" y="55" font-family="Arial" font-size="10" fill="#ef4444">Manipulation Detected</text>
      
      <!-- 检测框2 -->
      <rect x="110" y="120" width="40" height="60" 
            fill="none" stroke="#ef4444" stroke-width="1.5" 
            stroke-dasharray="3,3"/>
      <text x="110" y="115" font-family="Arial" font-size="10" fill="#ef4444">Text Modified</text>
    </g>
  </g>

  <!-- 中间连接元素 -->
  <g transform="translate(215, 110)">
    <!-- 处理箭头 -->
    <path d="M0 20 L35 20" stroke="#64748b" stroke-width="2"/>
    <path d="M35 20 L30 15 L35 20 L30 25" fill="none" stroke="#64748b" stroke-width="2"/>
    
    <!-- AI处理图标 -->
    <circle cx="17" cy="20" r="12" fill="none" stroke="#3b82f6" stroke-width="1.5"/>
    <path d="M12 20 L22 20 M17 15 L17 25" stroke="#3b82f6" stroke-width="1.5"/>
  </g>

  <!-- 底部分析数据 -->
  <g transform="translate(30, 250)">
    <rect x="0" y="0" width="405" height="42" rx="6" fill="#1e293b"/>
    <!-- 进度条 -->
    <rect x="10" y="15" width="120" height="12" rx="3" fill="#1e40af"/>
    <rect x="10" y="15" width="96" height="12" rx="3" fill="#3b82f6">
      <animate attributeName="width"
               values="0;96"
               dur="2s"
               fill="freeze"/>
    </rect>
    <text x="140" y="25" font-family="Arial" font-size="12" fill="#94a3b8">Confidence: 80%</text>
    <text x="280" y="25" font-family="Arial" font-size="12" fill="#22c55e">✓ Complete</text>
  </g>

  <!-- 装饰性科技线条 -->
  <g stroke="#1e40af" stroke-width="1">
    <line x1="20" y1="10" x2="445" y2="10" stroke-dasharray="2,4"/>
    <line x1="445" y1="10" x2="445" y2="292" stroke-dasharray="2,4"/>
  </g>
</svg>